<svg width="343" height="343" viewBox="0 0 343 343" fill="none" xmlns="http://www.w3.org/2000/svg">
<path d="M266.237 249.138L231.371 268.003L225.214 256.615L225.317 256.444L239.037 249.292H239.294C239.808 249.138 241.523 249.052 243.839 248.846C248.514 248.56 253.129 247.643 257.559 246.12C260.2 245.073 263.184 244.936 265.053 247.063C265.579 247.664 265.981 248.364 266.237 249.121V249.138Z" fill="#FF2D20"/>
<path d="M202.816 271.45C203.347 271.57 204.891 272.308 207.035 273.165C211.284 275.149 215.785 276.539 220.412 277.298C223.224 277.624 225.934 278.928 226.569 281.689C226.717 282.471 226.717 283.274 226.569 284.055C226.575 284.112 226.575 284.17 226.569 284.227H186.935V271.244H202.37H202.679L202.816 271.45Z" fill="#FF2D20" stroke="#282828" stroke-width="1.4749" stroke-miterlimit="10"/>
<path d="M201.547 225.763L201.427 222.538C201.478 223.567 201.513 224.665 201.547 225.763Z" fill="#282828"/>
<path d="M155.688 149.565C156.27 149.142 156.758 148.601 157.118 147.978C157.478 147.355 157.704 146.662 157.78 145.946C157.798 145.676 157.757 145.405 157.662 145.152C157.567 144.898 157.418 144.668 157.227 144.476C157.035 144.285 156.805 144.136 156.551 144.041C156.298 143.945 156.027 143.905 155.756 143.923C155.674 144.125 155.564 144.316 155.431 144.489L155.585 141.385L155.928 135.108C155.957 134.928 155.95 134.745 155.906 134.568C155.863 134.392 155.785 134.226 155.676 134.08C155.567 133.934 155.43 133.812 155.273 133.721C155.116 133.629 154.942 133.57 154.762 133.547H154.35L155.413 126.258H163.337L163.525 123.994H153.458L152.035 133.581H147.233C147.171 132.746 146.871 131.946 146.368 131.276C145.866 130.606 145.181 130.095 144.396 129.803C143.611 129.511 142.758 129.45 141.94 129.629C141.121 129.807 140.371 130.217 139.779 130.809C139.187 131.402 138.777 132.152 138.598 132.97C138.42 133.789 138.48 134.641 138.772 135.426C139.064 136.211 139.576 136.896 140.245 137.399C140.915 137.902 141.715 138.202 142.551 138.263L142.688 140.904L142.825 143.528H142.568C141.402 143.645 140.313 144.167 139.492 145.004C138.671 145.841 138.169 146.939 138.075 148.107L138.246 156.785L137.8 156.94C130.655 159.427 123.303 161.275 115.831 162.462C109.932 163.268 105.713 162.959 103.826 161.364C96.0915 154.933 109.657 115.865 116.054 109.571C119.759 105.901 127.339 104.323 136.634 102.523C136.952 101.332 137.713 100.307 138.761 99.6586H138.864C144.554 98.4259 150.435 98.3617 156.151 99.47L156.785 99.6929C157.401 99.8995 157.946 100.277 158.356 100.781C158.766 101.285 159.024 101.895 159.101 102.54C159.101 102.54 172.975 104.083 175.445 106.965C181.756 114.356 188.187 121.885 193.023 127.064C193.366 127.424 202.422 118.952 205.577 110.669H205.68C205.68 110.669 209.11 115.814 214.958 114.854C214.495 115.78 198.992 146.701 191.634 144.009C185.409 141.71 178.652 136.634 171.466 130.597C168.67 128.145 179.886 178.36 180.075 179.389H172.769L147.816 179.526H144.06L114.099 179.681C114.22 174.302 114.713 168.939 115.574 163.628C123.122 161.807 130.565 159.574 137.869 156.94L138.315 157.077C140.115 157.876 141.987 158.502 143.906 158.946L144.112 162.376C144.097 162.713 144.211 163.042 144.431 163.297C144.651 163.552 144.96 163.714 145.295 163.748H153.595C153.93 163.714 154.24 163.552 154.46 163.297C154.68 163.042 154.794 162.713 154.779 162.376L154.985 158.569C156.751 157.883 157.78 156.854 157.78 156.065C157.8 155.82 157.763 155.573 157.672 155.344C157.581 155.115 157.44 154.91 157.257 154.745C157.075 154.579 156.858 154.458 156.621 154.389C156.385 154.321 156.136 154.307 155.894 154.35H155.808H155.945C156.447 154.05 156.873 153.639 157.191 153.148C157.509 152.658 157.711 152.101 157.78 151.52C157.801 151.263 157.763 151.005 157.671 150.765C157.578 150.525 157.432 150.308 157.244 150.132C157.056 149.956 156.831 149.824 156.586 149.747C156.34 149.669 156.08 149.648 155.825 149.685L155.688 149.565Z" fill="#282828"/>
<path d="M202.541 258.468H226.5" stroke="#282828" stroke-width="1.4749" stroke-miterlimit="10"/>
<path d="M255.861 258.468H266.254V272.393H76.8662V258.468H184.277" stroke="#282828" stroke-width="1.4749" stroke-miterlimit="10"/>
<path d="M136 258H77V272H136V258Z" fill="#282828"/>
<path d="M227.958 219.64H277.47V295.357H65.5817V219.64H175.05" stroke="#282828" stroke-width="1.4749" stroke-miterlimit="10"/>
<path d="M92.5586 229.793C94.0836 229.793 95.3198 228.557 95.3198 227.032C95.3198 225.507 94.0836 224.271 92.5586 224.271C91.0337 224.271 89.7975 225.507 89.7975 227.032C89.7975 228.557 91.0337 229.793 92.5586 229.793Z" stroke="#282828" stroke-width="1.4749" stroke-miterlimit="10"/>
<path d="M82.8003 229.793C84.3253 229.793 85.5615 228.557 85.5615 227.032C85.5615 225.507 84.3253 224.271 82.8003 224.271C81.2754 224.271 80.0392 225.507 80.0392 227.032C80.0392 228.557 81.2754 229.793 82.8003 229.793Z" stroke="#282828" stroke-width="1.4749" stroke-miterlimit="10"/>
<path d="M73.0418 229.793C74.5667 229.793 75.8029 228.557 75.8029 227.032C75.8029 225.507 74.5667 224.271 73.0418 224.271C71.5168 224.271 70.2806 225.507 70.2806 227.032C70.2806 228.557 71.5168 229.793 73.0418 229.793Z" stroke="#282828" stroke-width="1.4749" stroke-miterlimit="10"/>
<path d="M236.67 81.3939C236.053 84.035 231.696 105.404 230.753 110.172" stroke="#282828" stroke-width="1.4749" stroke-linecap="round" stroke-linejoin="round"/>
<path d="M230.685 110.154C229.217 109.151 227.554 108.468 225.804 108.152C224.055 107.836 222.258 107.893 220.532 108.319" stroke="#282828" stroke-width="1.4749" stroke-linecap="round" stroke-linejoin="round"/>
<path d="M208.132 107.702C199.18 104.752 190.365 110.154 190.365 110.154C191.102 101.579 191.788 79.6961 191.788 79.6961C206.177 73.1619 214.426 82.1485 215.353 83.2461V83.349C219.126 77.1579 231.336 76.8149 236.55 81.3768" stroke="#282828" stroke-width="1.4749" stroke-linecap="round" stroke-linejoin="round"/>
<path d="M152.292 133.547H143.563C143.382 133.57 143.207 133.629 143.05 133.72C142.892 133.812 142.754 133.934 142.643 134.079C142.533 134.224 142.453 134.39 142.408 134.567C142.363 134.743 142.353 134.927 142.379 135.108L142.551 138.229L142.688 140.87L142.825 143.494V145.038V145.175" stroke="#282828" stroke-width="1.4749" stroke-miterlimit="10"/>
<path d="M155.396 144.489L155.55 141.385L155.893 135.108C155.923 134.928 155.915 134.745 155.872 134.568C155.829 134.392 155.75 134.226 155.641 134.08C155.533 133.934 155.396 133.812 155.238 133.721C155.081 133.629 154.908 133.57 154.727 133.547H154.041" stroke="#282828" stroke-width="1.4749" stroke-miterlimit="10"/>
<path d="M143.871 158.946L144.077 162.376C144.062 162.713 144.177 163.042 144.396 163.297C144.616 163.552 144.926 163.714 145.261 163.748H153.561C153.896 163.714 154.205 163.552 154.425 163.297C154.645 163.042 154.759 162.713 154.745 162.376L154.95 158.569V158.449" stroke="#282828" stroke-width="1.4749" stroke-miterlimit="10"/>
<path d="M142.859 144.9V145.038C144.334 148.879 153.287 147.027 155.345 144.489C155.479 144.316 155.588 144.125 155.671 143.923C155.671 143.923 155.671 143.923 155.671 143.923" stroke="#282828" stroke-width="1.4749" stroke-miterlimit="10"/>
<path d="M155.705 143.923C155.979 143.897 156.256 143.932 156.516 144.024C156.776 144.116 157.012 144.263 157.21 144.455C157.407 144.648 157.56 144.881 157.659 145.138C157.757 145.396 157.799 145.671 157.78 145.946C157.708 146.66 157.488 147.35 157.133 147.973C156.779 148.596 156.298 149.139 155.722 149.565C154.591 150.435 153.284 151.049 151.892 151.362C150.5 151.676 149.056 151.683 147.661 151.383" stroke="#282828" stroke-width="1.4749" stroke-miterlimit="10" stroke-linecap="round"/>
<path d="M155.791 149.685C156.048 149.643 156.312 149.659 156.562 149.734C156.812 149.809 157.042 149.94 157.234 150.117C157.426 150.293 157.575 150.512 157.669 150.755C157.764 150.998 157.802 151.26 157.78 151.52C157.703 152.107 157.491 152.668 157.161 153.159C156.831 153.65 156.391 154.058 155.876 154.35H155.739C153.354 155.759 150.542 156.264 147.816 155.773" stroke="#282828" stroke-width="1.4749" stroke-miterlimit="10" stroke-linecap="round"/>
<path d="M155.808 154.436H155.893C156.128 154.395 156.369 154.407 156.599 154.471C156.829 154.534 157.042 154.648 157.222 154.804C157.403 154.96 157.546 155.154 157.643 155.372C157.739 155.59 157.786 155.827 157.78 156.065C157.78 156.905 156.785 157.934 154.984 158.689C151.421 159.963 147.551 160.101 143.906 159.083C141.987 158.639 140.115 158.013 138.315 157.214" stroke="#282828" stroke-width="1.4749" stroke-miterlimit="10" stroke-linecap="round"/>
<path d="M142.808 140.87C146.238 139.515 147.147 142.585 150.543 143.374C151.259 143.524 151.994 143.559 152.721 143.477H152.961C153.515 143.345 154.033 143.092 154.478 142.736C154.923 142.38 155.283 141.931 155.533 141.419" stroke="#282828" stroke-width="1.4749" stroke-miterlimit="10" stroke-linecap="round"/>
<path d="M152.961 143.305L154.384 133.547L155.448 126.258L163.371 126.224L163.56 123.96H153.458L152.035 133.547L150.611 143.1" stroke="#282828" stroke-width="1.4749" stroke-linecap="round" stroke-linejoin="round"/>
<path d="M142.877 138.246H142.551C141.715 138.185 140.915 137.885 140.245 137.382C139.576 136.879 139.064 136.194 138.772 135.409C138.48 134.624 138.42 133.771 138.598 132.953C138.777 132.135 139.187 131.385 139.779 130.792C140.371 130.2 141.121 129.79 141.94 129.612C142.758 129.433 143.61 129.494 144.396 129.786C145.181 130.078 145.865 130.589 146.368 131.259C146.871 131.929 147.171 132.729 147.233 133.564C147.233 133.667 147.233 133.77 147.233 133.873" stroke="#282828" stroke-width="1.4749" stroke-linejoin="round"/>
<path d="M147.627 179.595H143.751" stroke="#282828" stroke-width="1.4749" stroke-miterlimit="10"/>
<path d="M140.476 62.8376C140.699 61.397 140.939 59.6991 141.299 57.9841C141.726 55.1558 142.865 52.4825 144.609 50.2152C148.588 45.8934 152.789 47.5912 156.305 51.3471C157.322 52.414 158.251 53.561 159.083 54.7771C161.586 58.4954 163.495 62.5802 164.743 66.885C166.166 72.836 157.574 86.093 155.173 87.0019C154.892 87.1158 154.599 87.1964 154.299 87.242C150.749 87.8594 146.307 84.6352 144.832 81.4968" stroke="#282828" stroke-width="1.4749" stroke-miterlimit="10" stroke-linecap="round"/>
<path d="M138.709 99.3328C138.881 89.3515 138.452 80.2792 139.447 70.3322" stroke="#282828" stroke-width="1.4749" stroke-miterlimit="10"/>
<path d="M154.196 86.899L154.299 87.3107C155.105 91.2552 155.276 96.0743 156.785 99.6415V99.8301" stroke="#282828" stroke-width="1.4749" stroke-miterlimit="10"/>
<path d="M141.848 64.6555C141.431 64.0182 140.929 63.4412 140.356 62.9405C136.411 59.5105 133.684 67.0908 135.211 69.2688C135.663 69.7792 136.253 70.149 136.91 70.3345C137.566 70.5199 138.262 70.5131 138.915 70.315H139.361C139.691 70.2398 140.008 70.1186 140.304 69.9548" stroke="#282828" stroke-width="1.4749" stroke-miterlimit="10" stroke-linecap="round"/>
<path d="M159.049 54.88C159.992 54.88 173.369 52.3075 171.517 48.5517C170.454 46.3908 163.371 48.5517 156.271 51.3814C149.548 54.0568 142.808 57.3153 141.264 58.0185L141.007 58.1385" stroke="#282828" stroke-width="1.4749" stroke-miterlimit="10"/>
<path d="M157.231 67.9311C158.561 67.3577 160.037 67.2197 161.45 67.5367" stroke="#282828" stroke-width="1.4749" stroke-miterlimit="10" stroke-linecap="round"/>
<path d="M152.995 68.0512C152.364 67.6234 151.608 67.4181 150.847 67.4678C150.086 67.5175 149.364 67.8193 148.793 68.3256" stroke="#282828" stroke-width="1.4749" stroke-miterlimit="10" stroke-linecap="round"/>
<path d="M139.601 65.9932C138.847 66.6442 137.887 67.0085 136.891 67.0222" stroke="#282828" stroke-width="1.4749" stroke-miterlimit="10" stroke-linecap="round"/>
<path d="M157.18 67.9483C156.322 69.8348 157.18 72.8532 157.557 74.8083C157.746 76.1632 158.02 78.77 155.499 77.861" stroke="#282828" stroke-width="1.4749" stroke-miterlimit="10" stroke-linecap="round"/>
<path d="M201.255 216.947C201.101 213.209 200.912 210.345 200.655 208.064C198.649 190.262 183.831 179.766 147.73 179.595" stroke="#282828" stroke-width="1.4749" stroke-miterlimit="10"/>
<path d="M202.816 271.896V271.313C202.456 260.2 202.216 250.956 202.01 243.221C202.01 242.844 202.01 242.45 202.01 242.072C201.855 235.624 201.718 230.256 201.598 225.763C201.598 224.631 201.598 223.567 201.495 222.538C201.495 220.498 201.375 218.645 201.307 216.965" stroke="#282828" stroke-width="1.4749" stroke-miterlimit="10"/>
<path d="M176.285 225.66C176.285 225.557 176.285 225.42 176.182 225.282L175.873 224.168C175.41 222.573 174.81 220.429 174.587 219.657H138.915C127.973 219.297 121.765 213.277 118.181 205.251C114.751 197.517 114.03 187.913 114.185 179.766C114.297 174.387 114.789 169.023 115.66 163.714C115.78 163.011 115.865 162.582 115.883 162.445" stroke="#282828" stroke-width="1.4749" stroke-miterlimit="10"/>
<path d="M202.49 271.33H187.055C185.237 260.714 183.128 251.299 181.121 243.256C179.406 236.155 177.691 230.119 176.268 225.317L175.959 224.202" stroke="#282828" stroke-width="1.4749" stroke-miterlimit="10"/>
<path d="M235.624 240.392L227.735 219.674C224.768 211.923 222.264 205.371 221.784 204.239C214.101 185.134 213.363 179.543 174.947 179.526H172.683L147.73 179.663H144.06L114.099 179.818" stroke="#282828" stroke-width="1.4749" stroke-miterlimit="10"/>
<path d="M201.238 216.93C202.37 219.28 204.84 223.55 207.875 228.575C210.636 233.137 213.843 238.316 216.913 243.187C219.983 248.058 223.224 252.997 225.488 256.41L239.037 249.189L236.67 243.204C236.344 242.347 235.967 241.369 235.589 240.357" stroke="#282828" stroke-width="1.4749" stroke-miterlimit="10"/>
<path d="M147.73 79.1301C147.903 79.6241 148.187 80.0719 148.56 80.4391C148.934 80.8064 149.386 81.0834 149.882 81.249C150.379 81.4145 150.907 81.4642 151.426 81.3942C151.944 81.3242 152.44 81.1364 152.875 80.8451" stroke="#282828" stroke-width="1.4749" stroke-miterlimit="10" stroke-linecap="round"/>
<path d="M215.627 110.36L215.987 109.829C218.422 105.901 216.296 102.042 216.45 100.911C216.845 98.218 219.52 99.0584 220.206 102.866C220.557 104.656 220.632 106.489 220.429 108.302C220.384 109.84 219.834 111.32 218.864 112.513C217.894 113.707 216.557 114.547 215.061 114.905C214.598 115.831 199.094 146.753 191.737 144.06C185.512 141.762 178.754 136.685 171.569 130.649C168.687 128.231 180.144 178.531 180.332 179.629H174.964" stroke="#282828" stroke-width="1.4749" stroke-miterlimit="10" stroke-linecap="round"/>
<path d="M211.922 108.388C211.809 108.601 211.683 108.807 211.545 109.005" stroke="#282828" stroke-width="1.4749" stroke-miterlimit="10" stroke-linecap="round"/>
<path d="M215.575 110.309C215.72 110.16 215.852 109.999 215.97 109.829C217.856 106.862 216.604 98.8526 214.083 98.4753C213.844 98.4438 213.601 98.4794 213.38 98.5782C210.43 99.7444 214.924 103.243 211.94 108.371" stroke="#282828" stroke-width="1.4749" stroke-miterlimit="10" stroke-linecap="round"/>
<path d="M211.545 109.023C211.683 108.819 211.809 108.607 211.922 108.388V108.388C212.675 107.074 212.907 105.526 212.574 104.049C212.42 103.123 211.494 100.413 210.482 100.002C210.238 99.8934 209.967 99.8596 209.704 99.9045C209.441 99.9495 209.197 100.071 209.002 100.255C208.808 100.438 208.672 100.674 208.612 100.934C208.552 101.195 208.57 101.467 208.664 101.717C210.105 105.695 209.35 107.05 208.252 107.822C207.155 108.594 206.211 108.714 205.868 109.709C205.781 110.005 205.678 110.297 205.56 110.583C202.404 118.867 193.349 127.339 193.006 126.979C188.17 121.834 181.738 114.27 175.427 106.879C172.958 103.998 159.083 102.454 159.083 102.454C159.007 101.809 158.748 101.199 158.338 100.695C157.929 100.191 157.384 99.8138 156.768 99.6072L156.151 99.47C150.431 98.3538 144.543 98.4122 138.846 99.6415V99.6415H138.743C137.695 100.29 136.935 101.315 136.617 102.506C127.356 104.221 119.776 105.936 116.037 109.554C109.623 115.848 96.0399 154.916 103.792 161.347C105.713 162.942 109.931 163.251 115.797 162.445C123.28 161.26 130.644 159.412 137.8 156.923L138.246 156.768L138.075 148.09C138.169 146.922 138.671 145.824 139.492 144.987C140.313 144.15 141.401 143.628 142.568 143.511" stroke="#282828" stroke-width="1.4749" stroke-miterlimit="10" stroke-linecap="round"/>
<path d="M215.353 82.9889L215.335 83.2461L214.101 98.3724" stroke="#282828" stroke-width="1.4749" stroke-linecap="round" stroke-linejoin="round"/>
<path d="M205.68 110.652C205.68 110.652 209.11 115.797 214.958 114.836" stroke="#282828" stroke-width="1.4749" stroke-miterlimit="10" stroke-linecap="round"/>
<path d="M113.927 163.988C114.459 163.988 115.008 163.834 115.642 163.714C123.191 161.893 130.634 159.66 137.937 157.025L140.013 156.322" stroke="#282828" stroke-width="1.4749" stroke-linejoin="round"/>
<path d="M160.37 70.4522C160.552 70.4522 160.726 70.5245 160.855 70.6532C160.983 70.7818 161.056 70.9563 161.056 71.1382C161.056 71.3202 160.983 71.4947 160.855 71.6233C160.726 71.752 160.552 71.8242 160.37 71.8242C160.188 71.8242 160.013 71.752 159.885 71.6233C159.756 71.4947 159.684 71.3202 159.684 71.1382C159.684 70.9563 159.756 70.7818 159.885 70.6532C160.013 70.5245 160.188 70.4522 160.37 70.4522Z" fill="#282828"/>
<path d="M152.035 70.4522C152.171 70.4522 152.303 70.4925 152.416 70.5678C152.529 70.6432 152.617 70.7504 152.669 70.8757C152.721 71.0011 152.734 71.139 152.708 71.2721C152.681 71.4051 152.616 71.5274 152.52 71.6233C152.424 71.7193 152.302 71.7846 152.169 71.8111C152.036 71.8375 151.898 71.8239 151.772 71.772C151.647 71.7201 151.54 71.6322 151.464 71.5194C151.389 71.4065 151.349 71.2739 151.349 71.1382C151.349 70.9563 151.421 70.7818 151.55 70.6532C151.678 70.5245 151.853 70.4522 152.035 70.4522Z" fill="#282828"/>
<path d="M186.952 284.536V287.537H226.654V284.278H226.586H186.969H186.952V284.536Z" stroke="#282828" stroke-width="1.4749" stroke-linecap="round" stroke-linejoin="round"/>
<path d="M231.662 267.849L252.551 256.598" stroke="#282828" stroke-width="1.4749" stroke-miterlimit="10"/>
<path d="M231.491 268.209L232.914 270.833L267.832 251.985L266.288 249.104L266.237 249.138L231.371 267.969H231.354L231.491 268.209Z" stroke="#282828" stroke-width="1.4749" stroke-linecap="round" stroke-linejoin="round"/>
<path d="M127.922 192.08C128.11 198.94 123.772 203.21 118.129 205.234C115.92 206.008 113.608 206.453 111.269 206.555" stroke="#282828" stroke-width="1.4749" stroke-miterlimit="10" stroke-linecap="round"/>
<path d="M239.225 249.155C239.74 249.001 241.455 248.915 243.77 248.709C248.445 248.423 253.061 247.506 257.49 245.982C260.131 244.936 263.115 244.799 264.985 246.926C265.511 247.527 265.913 248.226 266.168 248.984V249.138L231.868 267.746L225.54 256.65L239.225 249.155Z" stroke="#282828" stroke-width="1.4749" stroke-linecap="round" stroke-linejoin="round"/>
<path d="M139.807 146.924C135.88 147.627 121.199 149.822 116.723 150.354C117.901 142.616 120.128 135.075 123.343 127.939" stroke="#282828" stroke-width="1.4749" stroke-miterlimit="10" stroke-linecap="round"/>
<path d="M233.394 234.166H277.11" stroke="#282828" stroke-width="1.4749" stroke-miterlimit="10"/>
<path d="M201.838 234.166H211.117" stroke="#282828" stroke-width="1.4749" stroke-miterlimit="10"/>
<path d="M65.5301 234.166H178.652" stroke="#282828" stroke-width="1.4749" stroke-miterlimit="10"/>
<path d="M69.5 65C65.6346 65 62.5 68.1065 62.5 71.9392C62.5 75.0331 63.725 82.376 75.7832 89.7988C75.9992 89.9304 76.2472 90 76.5 90C76.7528 90 77.0008 89.9304 77.2168 89.7988C89.275 82.376 90.5 75.0331 90.5 71.9392C90.5 68.1065 87.3654 65 83.5 65C79.6346 65 76.5 69.2056 76.5 69.2056C76.5 69.2056 73.3654 65 69.5 65Z" stroke="#282828" stroke-width="2" stroke-linecap="round" stroke-linejoin="round"/>
</svg>
